<svg version="1.1" id="Layer_1" xmlns="http://www.w3.org/2000/svg" xmlns:xlink="http://www.w3.org/1999/xlink" x="0px" y="0px"
	 width="100%" viewBox="0 0 1024 576" enable-background="new 0 0 1024 576" xml:space="preserve">
<path fill="#000000" opacity="1.000000" stroke="none" 
	d="
M467.289490,311.311890 
	C467.062256,319.052582 457.020020,327.050262 450.311279,328.258209 
	C448.842773,328.522644 447.254883,328.408752 446.039307,329.429657 
	C435.932465,337.917725 423.967682,332.775757 412.867493,333.904297 
	C410.601196,334.134705 409.876312,332.197449 409.878479,330.132080 
	C409.897827,311.643188 409.923309,293.154297 409.926849,274.665405 
	C409.927612,270.757385 412.136902,271.059692 414.960571,271.686798 
	C445.622894,278.496704 475.821075,261.715149 485.897156,232.344055 
	C487.585114,227.423706 488.694305,222.306458 488.618958,217.174820 
	C488.545288,212.156845 490.181519,210.640701 495.245819,210.668106 
	C531.723389,210.865448 568.202454,210.768723 604.681091,210.764526 
	C607.512756,210.764191 610.348877,210.855896 613.174988,210.728928 
	C616.295898,210.588699 617.897461,211.918182 617.876953,215.062210 
	C617.807495,225.716202 617.725281,236.370087 617.632874,247.023880 
	C617.628601,247.513504 617.647400,248.284607 617.371399,248.449570 
	C609.921692,252.903229 610.683105,261.581543 607.316711,268.119202 
	C604.329346,273.920624 601.614929,275.312469 596.091858,271.772827 
	C591.627747,268.911865 587.509338,265.494843 583.350525,262.182709 
	C581.839966,260.979675 580.365601,260.236267 578.401062,260.254639 
	C568.839111,260.344116 560.388550,257.310760 552.100525,252.434967 
	C541.756287,246.349533 532.071350,239.461960 522.668152,232.095276 
	C518.882202,229.129242 511.940643,230.623169 510.624237,235.237473 
	C509.702393,238.468719 507.988220,240.966385 505.974884,243.313171 
	C503.039581,246.734558 502.560059,251.225113 500.525848,254.863846 
	C497.316772,260.604156 490.752838,263.556793 486.881134,269.154694 
	C485.448334,271.226349 481.204254,271.668884 478.128876,272.211426 
	C474.066925,272.928009 472.882935,275.193115 473.308441,278.895660 
	C473.384216,279.554901 473.143646,280.320465 473.397339,280.878754 
	C476.939484,288.674194 472.108093,295.724579 471.464813,303.139160 
	C471.190277,306.303436 467.563507,307.718628 467.289490,311.311890 
z"/>
<path fill="#000000" opacity="1.000000" stroke="none" 
	d="
M553.368774,315.988098 
	C551.432373,305.174347 553.389099,294.216370 547.555908,284.211243 
	C544.230713,278.507874 541.883972,272.005798 539.404602,265.606232 
	C543.359192,266.968079 545.873413,269.986603 548.162415,272.955383 
	C550.214111,275.616272 552.440491,277.306030 555.696045,278.212952 
	C561.075806,279.711700 564.951111,282.714233 566.573303,288.684479 
	C567.755371,293.034821 571.331970,296.496490 572.055908,301.313263 
	C572.392822,303.554657 572.621948,305.403137 570.639648,306.520050 
	C568.380127,307.793213 567.362488,305.676544 566.391785,304.209381 
	C564.592590,301.489960 562.948608,298.667786 560.815247,295.197388 
	C561.195923,304.244049 569.775635,315.584015 576.806946,317.098969 
	C573.277405,313.719574 571.722229,309.982269 573.995911,305.202637 
	C576.868225,306.189697 575.162476,309.949188 578.318481,310.759155 
	C578.416626,307.215515 577.035217,304.218750 575.450134,301.328705 
	C577.240234,300.025391 578.254211,301.220825 578.975830,302.189972 
	C584.954956,310.219971 592.914795,315.523926 601.620300,320.295624 
	C605.952576,322.670319 609.800842,325.665314 614.854004,326.479889 
	C616.825745,326.797729 617.266174,328.523621 617.264709,330.338043 
	C617.258240,338.333191 617.353210,346.329559 617.237122,354.322937 
	C617.184204,357.968842 611.171814,360.840515 606.505371,358.516968 
	C600.015137,355.285248 592.837524,353.892975 587.287598,347.812836 
	C583.192871,343.326996 577.582031,338.962982 570.939575,337.043396 
	C560.649414,334.069611 557.033325,325.120667 553.368774,315.988098 
M609.582214,336.877075 
	C608.082336,334.587463 606.061707,332.912903 603.389648,332.302460 
	C595.853699,330.580872 590.842773,325.910950 587.730957,319.042542 
	C586.353943,316.003174 583.833801,314.824188 580.742981,314.089233 
	C585.154968,315.987732 586.137329,320.042969 587.818726,323.811920 
	C589.320190,327.177307 592.233765,329.592438 595.664856,331.142395 
	C600.169250,333.177185 604.710571,335.130096 609.582214,336.877075 
z"/>
<path fill="#000000" opacity="1.000000" stroke="none" 
	d="
M475.003601,370.273315 
	C470.841156,370.267212 467.175507,370.338715 463.514740,370.236481 
	C458.967255,370.109467 458.810944,369.039948 459.548096,364.694672 
	C461.221985,354.827789 468.568481,350.286102 476.009766,345.603180 
	C482.359863,341.606934 487.149567,335.285187 495.121490,333.622284 
	C496.531097,335.888794 496.033722,338.045837 492.717621,339.125183 
	C488.293579,340.565125 487.492310,345.366364 483.014374,348.504395 
	C486.317780,348.157990 487.456818,346.974854 488.499237,345.492188 
	C490.322540,342.898895 492.362457,340.622864 495.312042,339.088928 
	C499.172791,337.081146 499.902496,332.455872 501.290497,329.102386 
	C503.790771,323.061371 509.719574,320.382172 512.460693,314.364075 
	C515.188049,321.602448 509.338562,324.701111 506.641510,328.974121 
	C505.375366,330.980072 504.125366,332.653320 504.000336,335.160217 
	C503.765656,339.864868 500.137817,342.652588 497.025879,345.906738 
	C503.769409,345.763794 507.577179,341.942444 507.333771,335.550812 
	C507.253998,333.456329 507.990204,331.978424 509.383514,330.727112 
	C513.259216,327.246490 515.609314,323.072327 516.066528,317.785553 
	C516.248413,315.681915 517.108948,313.650635 519.195740,312.118683 
	C524.289795,326.853973 515.373779,337.789978 509.950958,349.723267 
	C514.841248,341.532043 524.410461,335.954102 523.017273,323.994385 
	C526.569458,326.075073 527.551758,328.577271 527.514648,332.066101 
	C527.461792,337.049774 527.336853,341.865692 525.138184,346.537659 
	C523.419800,350.188965 524.511353,353.641327 528.183228,355.433228 
	C534.028564,358.285797 535.478394,364.588989 540.003784,368.406708 
	C539.824707,369.029083 539.645630,369.651459 539.466553,370.273834 
	C518.145203,370.273834 496.823883,370.273834 475.003601,370.273315 
z"/>
<path fill="#000000" opacity="1.000000" stroke="none" 
	d="
M577.640137,172.125381 
	C577.839783,165.449738 578.685669,164.674347 583.984558,165.041397 
	C587.144226,165.260254 588.337585,166.758011 588.305786,169.815262 
	C588.238281,176.298172 588.331116,182.782684 588.350769,189.266571 
	C588.357666,191.537125 588.455200,193.731964 591.514221,193.920059 
	C594.998840,194.134354 594.555359,191.445953 594.595215,189.443512 
	C594.724121,182.961929 594.778564,176.473999 594.630920,169.993774 
	C594.554138,166.623474 595.857788,164.996292 599.234436,165.082535 
	C599.400208,165.086777 599.566467,165.067200 599.732605,165.061462 
	C615.742737,164.509735 617.854980,167.385208 617.341736,181.508301 
	C617.184753,185.825729 617.391357,190.156494 617.229797,194.473602 
	C617.021851,200.029602 614.946350,202.566620 609.395386,202.797516 
	C600.146179,203.182251 590.873657,203.017014 581.610840,203.056396 
	C578.202454,203.070892 577.622803,200.875259 577.639587,198.043610 
	C577.689880,189.565155 577.640808,181.086136 577.640137,172.125381 
M606.602966,189.321167 
	C606.602966,185.450439 606.602966,181.579727 606.602966,177.709000 
	C606.257141,177.734985 605.911255,177.760971 605.565430,177.786942 
	C605.565430,182.438004 605.565430,187.089066 605.565430,191.740128 
	C605.722534,191.757919 605.879639,191.775711 606.036743,191.793503 
	C606.207336,191.196564 606.377930,190.599640 606.602966,189.321167 
z"/>
<path fill="#000000" opacity="1.000000" stroke="none" 
	d="
M438.270325,165.020050 
	C442.218781,165.040527 445.712067,165.011032 449.202209,165.101486 
	C451.166199,165.152359 452.949188,165.772766 453.064606,168.115982 
	C453.174042,170.337860 454.004913,173.153519 450.888458,173.980164 
	C447.980286,174.751556 448.013458,176.787949 448.002930,178.986771 
	C447.973419,185.140137 447.836639,191.296463 447.982208,197.445938 
	C448.076385,201.424545 446.626343,203.143997 442.461121,203.100510 
	C438.444427,203.058533 436.674103,201.643967 436.811707,197.522720 
	C436.994751,192.040619 436.689240,186.541153 436.907135,181.061615 
	C437.065704,177.075241 436.858643,173.650986 431.454071,173.288132 
	C431.674225,178.497421 427.553741,178.157700 422.887939,178.314545 
	C425.038055,180.168274 426.637360,181.440063 428.113739,182.841339 
	C431.657166,186.204514 432.760406,195.797424 430.097931,199.588608 
	C427.274872,203.608398 420.256226,205.049683 415.124695,202.663330 
	C411.061554,200.773834 408.574677,195.077530 409.804749,190.869293 
	C410.838501,187.332718 414.650055,189.578476 416.427856,187.617493 
	C409.415894,180.651108 407.395660,172.245178 411.560516,167.629303 
	C415.578857,163.175766 424.534698,163.713608 430.916962,169.140579 
	C431.243286,164.228149 434.768616,165.094574 438.270325,165.020050 
z"/>
<path fill="#000000" opacity="1.000000" stroke="none" 
	d="
M562.196716,376.724426 
	C566.491333,376.728149 570.312927,376.624695 574.125610,376.765472 
	C580.307678,376.993805 583.583557,379.748657 583.939880,385.748413 
	C584.322937,392.198456 584.280762,398.696869 583.998352,405.155579 
	C583.793213,409.845215 580.469482,412.371796 576.149536,412.751892 
	C571.045227,413.201019 565.872131,412.910889 560.729492,412.866608 
	C558.075562,412.843750 556.887939,411.369507 556.899658,408.734924 
	C556.941040,399.440247 556.955688,390.145294 556.935181,380.850555 
	C556.927917,377.544250 558.738586,376.492401 562.196716,376.724426 
M571.075256,385.373474 
	C570.637817,385.395935 569.830078,385.359375 569.815735,385.449219 
	C568.819885,391.699707 569.239624,397.909851 570.518616,404.136261 
	C571.929443,398.107422 571.874939,392.040924 571.075256,385.373474 
z"/>
<path fill="#000000" opacity="1.000000" stroke="none" 
	d="
M440.116943,382.522400 
	C440.158112,386.079254 440.807343,389.296082 438.971344,392.190887 
	C438.364044,393.148407 438.436493,394.105438 439.130127,394.961731 
	C441.942810,398.434052 441.106812,402.556366 441.138123,406.487396 
	C441.184418,412.310669 436.954590,414.893585 431.588531,412.575989 
	C429.539703,411.691101 429.832703,410.041351 429.682526,408.416992 
	C429.358673,404.913818 430.475433,401.255463 428.660065,397.259857 
	C426.075806,400.689819 427.138794,404.106842 427.266052,407.154297 
	C427.471161,412.064423 425.046051,412.981476 420.874756,413.050354 
	C416.456604,413.123291 414.544495,411.689331 414.713165,406.998718 
	C415.005920,398.855957 415.010162,390.688293 414.729675,382.545044 
	C414.567871,377.847351 416.419373,376.244202 420.893768,376.676270 
	C425.501709,377.121246 430.160950,376.174164 434.782471,377.461212 
	C437.451782,378.204590 439.310394,379.393860 440.116943,382.522400 
z"/>
<path fill="#000000" opacity="1.000000" stroke="none" 
	d="
M553.693176,402.596832 
	C553.630371,404.282379 553.330383,405.646515 553.526855,406.934906 
	C554.303894,412.030396 551.824585,413.284485 547.230713,413.035400 
	C543.627502,412.840027 542.214050,411.617432 542.464355,407.871460 
	C542.698120,404.374146 543.343323,400.702942 541.462708,396.737213 
	C538.912354,399.915802 540.064941,403.114288 539.977783,406.022308 
	C539.787476,412.372589 536.428650,414.727203 530.323853,412.679840 
	C528.056030,411.919312 527.835876,410.259033 527.831787,408.359070 
	C527.811890,399.200256 527.817200,390.041382 527.785217,380.882629 
	C527.777405,378.646515 528.265076,376.812653 530.966248,376.794159 
	C535.626892,376.762207 540.328430,376.437683 544.939880,376.925812 
	C552.292542,377.704163 555.235413,383.477631 552.406006,390.822052 
	C552.054016,391.735809 551.455994,392.554840 550.829590,393.671692 
	C553.167175,396.015289 554.163574,398.906464 553.693176,402.596832 
z"/>
<path fill="#000000" opacity="1.000000" stroke="none" 
	d="
M523.935181,389.328094 
	C523.863037,394.102325 524.073364,398.441589 523.672058,402.723541 
	C522.910095,410.854187 518.451599,413.818024 508.312195,413.373505 
	C500.834015,413.045654 497.058899,409.328156 496.812195,401.853577 
	C496.680878,397.874542 496.757233,393.887939 496.775848,389.904907 
	C496.821289,380.189880 500.513611,376.130890 509.530579,375.846924 
	C519.072632,375.546387 523.146362,379.227020 523.935181,389.328094 
M511.440063,385.108246 
	C510.899750,384.291565 509.796295,383.845154 509.644165,384.902924 
	C508.672272,391.660645 509.031525,398.406860 509.412598,405.137207 
	C510.136047,405.144440 510.859497,405.151672 511.582947,405.158905 
	C511.582947,398.710327 511.582947,392.261749 511.440063,385.108246 
z"/>
<path fill="#000000" opacity="1.000000" stroke="none" 
	d="
M491.033264,167.460999 
	C492.845642,164.400558 495.438782,164.781052 497.814880,165.449036 
	C500.562408,166.221436 500.093292,168.809570 500.107971,170.899307 
	C500.169708,179.703140 500.141541,188.507553 500.163239,197.311722 
	C500.170074,200.082291 500.206696,202.788269 496.346527,203.007614 
	C493.134521,203.190140 490.300842,202.935837 489.472870,199.010391 
	C489.171875,197.583282 488.623199,196.208420 487.552948,194.791275 
	C487.450317,196.141724 487.247101,197.493500 487.264893,198.842361 
	C487.309479,202.226227 485.270264,203.037582 482.406891,203.017349 
	C479.614838,202.997604 478.000488,201.808289 478.004272,198.861877 
	C478.016907,189.061737 478.007751,179.261505 478.056244,169.461548 
	C478.066650,167.358170 478.505005,165.356873 481.168030,165.178772 
	C483.632751,165.013931 486.336029,164.535507 487.612640,167.525589 
	C488.635742,169.921783 489.466339,172.400146 490.933380,174.760620 
	C490.933380,172.464157 490.933380,170.167709 491.033264,167.460999 
z"/>
<path fill="#000000" opacity="1.000000" stroke="none" 
	d="
M552.837769,188.857193 
	C552.864319,184.062271 552.716064,179.738434 552.943909,175.434494 
	C553.308289,168.548141 557.370850,164.604828 563.975037,164.385651 
	C570.434326,164.171280 574.561279,167.995743 575.494202,174.869247 
	C576.257812,180.495972 576.149292,186.142685 575.878357,191.769073 
	C575.487671,199.884430 571.120728,204.174850 563.847656,204.032593 
	C557.033264,203.899323 553.078491,199.342514 552.829895,191.328842 
	C552.809326,190.665619 552.830200,190.001114 552.837769,188.857193 
M564.535278,175.232056 
	C563.476807,181.358017 564.231628,187.481293 564.745483,193.607330 
	C564.745483,187.632950 564.745483,181.658585 564.535278,175.232056 
z"/>
<path fill="#000000" opacity="1.000000" stroke="none" 
	d="
M604.319458,412.977783 
	C600.576843,413.564392 597.247253,413.655853 593.953979,412.975586 
	C588.384155,411.825073 585.586731,407.370087 586.646301,401.822601 
	C586.997131,399.986084 587.999084,399.240295 589.637024,399.078552 
	C591.449219,398.899628 593.272644,398.834625 596.043518,398.659973 
	C593.826355,397.113403 592.282837,396.035400 590.737976,394.959381 
	C586.573181,392.058380 586.155884,387.854523 586.854309,383.367493 
	C587.548523,378.907654 590.711243,377.032837 594.787781,376.230408 
	C599.343201,375.333679 603.792175,375.636475 607.893738,377.872314 
	C610.736877,379.422180 612.226440,381.985565 611.882019,385.339081 
	C611.672363,387.380280 610.250610,388.263947 608.390503,388.108795 
	C605.385925,387.858276 601.410706,389.918823 600.178345,384.940033 
	C600.085999,384.567108 599.544189,384.305450 598.855896,383.657501 
	C597.657776,386.854736 599.549316,388.127960 601.468567,389.346252 
	C603.848145,390.856628 606.446716,391.930542 608.742249,393.673157 
	C614.706238,398.200531 614.647156,411.644501 604.319458,412.977783 
z"/>
<path fill="#000000" opacity="1.000000" stroke="none" 
	d="
M479.395538,399.745667 
	C479.717377,401.844849 478.586853,403.866211 480.532654,405.119324 
	C481.659729,404.876343 481.760101,404.040588 481.889740,403.214050 
	C482.857788,397.041901 485.372009,395.424713 491.568970,396.845795 
	C493.047821,397.184875 493.833527,397.868225 494.194000,399.381317 
	C495.355591,404.257385 492.543701,410.266266 487.895752,412.145416 
	C482.891815,414.168518 477.731293,414.085419 472.848541,411.939117 
	C469.397278,410.421997 467.665558,407.238342 467.589905,403.483337 
	C467.472748,397.666290 467.396484,391.832550 467.702667,386.027008 
	C468.056061,379.326355 473.761444,375.488556 482.274811,375.821014 
	C489.686371,376.110474 494.228973,380.432373 494.330139,387.035004 
	C494.379761,390.273743 493.327484,392.257355 489.825806,392.039062 
	C486.628845,391.839813 482.347809,393.561279 481.974457,387.878021 
	C481.892792,386.634766 482.340515,385.180511 480.156097,383.507111 
	C479.278107,389.122192 479.366730,394.216370 479.395538,399.745667 
z"/>
<path fill="#000000" opacity="1.000000" stroke="none" 
	d="
M461.527008,164.871185 
	C472.186340,164.239685 476.007233,167.740341 476.148285,177.927643 
	C476.215027,182.747787 476.284119,187.577072 476.070801,192.389755 
	C475.744843,199.743439 471.278931,204.042236 464.415771,203.924866 
	C457.707825,203.810150 453.780304,199.599960 453.662689,192.224487 
	C453.570068,186.414886 453.594757,180.602798 453.622345,174.792084 
	C453.646698,169.661484 456.070984,166.301346 461.527008,164.871185 
M464.173096,176.487778 
	C464.169525,179.468460 464.164673,182.449142 464.162781,185.429825 
	C464.161011,188.226898 464.162384,191.023956 464.162384,193.821030 
	C466.053955,188.298920 465.863586,178.301224 464.388428,173.549408 
	C464.301849,174.487823 464.242462,175.131592 464.173096,176.487778 
z"/>
<path fill="#000000" opacity="1.000000" stroke="none" 
	d="
M539.231628,186.818268 
	C539.233643,189.338242 539.233643,191.397858 539.233643,193.457474 
	C541.462830,191.380630 539.677612,187.662018 543.802124,186.921692 
	C550.421448,185.733521 553.027100,188.241455 551.511169,194.796417 
	C550.149475,200.684479 545.318848,204.215683 538.954468,203.975372 
	C533.014587,203.751099 529.520081,200.422577 528.592468,193.946777 
	C527.690857,187.653091 527.785156,181.303970 528.343994,175.012970 
	C528.979919,167.853119 533.101074,164.472824 540.348389,164.482925 
	C546.705200,164.491791 550.490112,168.036438 551.456177,174.885605 
	C552.423584,181.744202 551.236206,182.830750 544.394104,182.305008 
	C538.725342,181.869431 541.798340,177.150803 539.229614,174.612396 
	C539.229614,178.527573 539.229614,182.442734 539.231628,186.818268 
z"/>
<path fill="#000000" opacity="1.000000" stroke="none" 
	d="
M464.118530,380.839478 
	C464.189087,383.766968 462.809052,384.869995 460.482788,385.070587 
	C458.763733,385.218811 456.985596,385.443176 456.923584,387.678680 
	C456.861603,389.914368 458.730652,389.691833 460.153717,389.804199 
	C462.832153,390.015686 463.284271,391.741394 463.271729,393.968170 
	C463.259125,396.204742 462.742523,398.006897 460.091064,398.079651 
	C457.787872,398.142883 456.298584,398.711914 456.435364,401.512665 
	C456.571198,404.293610 458.168884,404.781799 460.414215,404.676514 
	C463.245789,404.543732 464.160156,406.065857 464.146362,408.694336 
	C464.132660,411.306763 463.113953,412.850281 460.407654,412.889191 
	C456.259125,412.948883 452.109131,412.953613 447.960236,412.920380 
	C445.503418,412.900726 444.492188,411.637238 444.515747,409.128662 
	C444.606079,399.501556 444.608551,389.872925 444.545166,380.245514 
	C444.528320,377.683533 445.591248,376.652283 448.104187,376.701599 
	C452.252777,376.783020 456.404236,376.762177 460.553955,376.725098 
	C463.088287,376.702454 464.177582,377.972198 464.118530,380.839478 
z"/>
<path fill="#000000" opacity="1.000000" stroke="none" 
	d="
M516.517090,179.457336 
	C519.863098,183.979019 519.612793,185.708649 515.288513,188.035492 
	C513.924866,188.769302 513.256348,189.553467 513.244202,191.053467 
	C513.229004,192.927856 514.250366,193.750122 515.967285,193.936554 
	C519.929749,194.366806 519.358948,197.326767 519.278809,199.948242 
	C519.182007,203.116974 516.762085,203.001541 514.604614,203.018204 
	C500.114105,203.130066 502.052399,203.951157 501.940979,191.139740 
	C501.880341,184.167191 502.055054,177.191879 501.942169,170.220749 
	C501.879761,166.368042 503.544495,164.750214 507.338470,164.989258 
	C509.488434,165.124710 511.654419,164.982864 513.811890,165.028793 
	C516.179443,165.079178 518.678345,165.048508 518.984558,168.311966 
	C519.243958,171.076035 519.347839,173.808502 515.523743,174.223892 
	C514.217834,174.365753 513.366455,175.015167 513.309875,176.434311 
	C513.230896,178.414917 514.703918,178.856216 516.517090,179.457336 
z"/>
<path fill="#000000" opacity="1.000000" stroke="none" 
	d="
M566.820557,370.148010 
	C562.031006,370.279388 558.231018,368.934631 554.991516,365.891937 
	C553.925537,364.890717 552.593323,364.007172 551.222717,363.523865 
	C544.017700,360.983276 539.459595,355.408478 536.011780,349.194031 
	C533.497681,344.662659 534.442688,338.860992 531.735901,333.905853 
	C533.936462,333.926575 534.923523,335.148621 535.414124,336.152069 
	C538.900635,343.283173 545.648865,347.469055 551.242554,352.293518 
	C556.449280,356.784180 561.018677,362.470520 567.653992,365.288452 
	C568.958984,365.842621 569.969543,366.755707 569.823608,368.299255 
	C569.682434,369.792938 568.377502,369.910553 566.820557,370.148010 
z"/>
<path fill="#000000" opacity="1.000000" stroke="none" 
	d="
M564.232178,274.214966 
	C565.593872,273.282654 566.861389,274.028168 568.098511,274.301331 
	C571.733093,275.103821 573.240601,274.064392 571.967773,269.926300 
	C574.813904,273.642487 578.803528,275.681244 580.747498,280.294830 
	C582.491394,284.433289 587.357605,286.582275 591.251953,289.073181 
	C595.695618,291.915436 599.520203,295.315704 602.226929,299.930328 
	C588.735291,292.590546 574.669373,286.209503 564.232178,274.214966 
z"/>
<path fill="#000000" opacity="1.000000" stroke="none" 
	d="
M577.316284,263.900543 
	C584.410095,265.039429 588.818787,270.352386 594.532959,273.322754 
	C598.201111,275.229523 601.681885,276.708191 606.346130,275.266632 
	C605.786072,278.346466 604.533203,280.949249 605.566833,283.910919 
	C595.997620,278.688782 587.906433,271.390320 578.299988,266.637604 
	C576.902161,268.252472 579.757629,268.883270 578.558960,270.474670 
	C576.016357,269.148468 574.289368,267.078156 572.874817,264.710144 
	C574.021301,262.612366 575.611877,263.941376 577.316284,263.900543 
z"/>
<path fill="#000000" opacity="1.000000" stroke="none" 
	d="
M600.867920,311.254761 
	C596.304749,306.532867 590.061768,303.416473 590.133850,295.708221 
	C598.234375,300.331879 602.444214,309.026245 610.019958,314.220886 
	C606.369507,314.851288 603.823242,312.993256 600.867920,311.254761 
z"/>
<path fill="#000000" opacity="1.000000" stroke="none" 
	d="
M614.304382,296.597748 
	C615.421082,297.772247 616.691895,298.475403 616.491089,300.064026 
	C610.962646,299.391083 601.697144,291.513489 598.435669,284.239655 
	C604.867676,287.471863 610.282593,290.812683 614.304382,296.597748 
z"/>
</svg>